<?xml version="1.0" encoding="UTF-8" standalone="no"?>
<!-- Created with Inkscape (http://www.inkscape.org/) -->

<svg
   width="141.45924mm"
   height="165.55617mm"
   viewBox="0 0 141.45924 165.55617"
   version="1.1"
   id="svg5"
   inkscape:version="1.2.2 (732a01da63, 2022-12-09)"
   sodipodi:docname="hex1.svg"
   inkscape:export-filename="p1_1.svg"
   inkscape:export-xdpi="96"
   inkscape:export-ydpi="96"
   xmlns:inkscape="http://www.inkscape.org/namespaces/inkscape"
   xmlns:sodipodi="http://sodipodi.sourceforge.net/DTD/sodipodi-0.dtd"
   xmlns="http://www.w3.org/2000/svg"
   xmlns:svg="http://www.w3.org/2000/svg">
  <sodipodi:namedview
     id="namedview7"
     pagecolor="#ffffff"
     bordercolor="#000000"
     borderopacity="0.25"
     inkscape:showpageshadow="2"
     inkscape:pageopacity="0.0"
     inkscape:pagecheckerboard="0"
     inkscape:deskcolor="#d1d1d1"
     inkscape:document-units="mm"
     showgrid="false"
     inkscape:zoom="0.73851712"
     inkscape:cx="403.5113"
     inkscape:cy="566.6761"
     inkscape:window-width="1920"
     inkscape:window-height="1080"
     inkscape:window-x="0"
     inkscape:window-y="0"
     inkscape:window-maximized="1"
     inkscape:current-layer="layer4"
     showguides="true">
    <sodipodi:guide
       position="70.491206,37.159159"
       orientation="1,0"
       id="guide365"
       inkscape:locked="false" />
    <sodipodi:guide
       position="-112.58116,82.658558"
       orientation="0,-1"
       id="guide367"
       inkscape:locked="false" />
    <sodipodi:guide
       position="-57.766929,124.21706"
       orientation="0,-1"
       id="guide430"
       inkscape:locked="false" />
    <sodipodi:guide
       position="11.736084,41.816579"
       orientation="0,-1"
       id="guide432"
       inkscape:locked="false" />
    <sodipodi:guide
       position="-94.309749,52.206199"
       orientation="0,-1"
       id="guide434"
       inkscape:locked="false" />
    <sodipodi:guide
       position="-87.502753,115.26049"
       orientation="0,-1"
       id="guide436"
       inkscape:locked="false" />
  </sodipodi:namedview>
  <defs
     id="defs2" />
  <g
     inkscape:groupmode="layer"
     id="layer7"
     inkscape:label="real 3"
     transform="translate(-30.180682,-57.183203)">
    <path
       sodipodi:type="star"
       style="fill:#ffffff;fill-opacity:0;stroke:#000000;stroke-width:1;stroke-linecap:round;stroke-opacity:1"
       id="path2906-0"
       inkscape:flatsided="true"
       sodipodi:sides="6"
       sodipodi:cx="41.916767"
       sodipodi:cy="65.203857"
       sodipodi:r1="66.611862"
       sodipodi:r2="57.687569"
       sodipodi:arg1="0.52381586"
       sodipodi:arg2="1.0474146"
       inkscape:rounded="0"
       inkscape:randomized="0"
       d="M 99.5971,98.522311 41.902307,131.81572 -15.778027,98.497265 -15.763566,31.885404 41.931228,-1.4080032 99.611561,31.91045 Z"
       transform="matrix(1.2153931,0,0,1.2320147,49.964958,59.629186)" />
    <path
       style="fill:#ffffff;fill-opacity:0;stroke:#000000;stroke-width:1;stroke-linecap:round;stroke-opacity:1"
       d="m 31.31953,107.34477 c 0.526548,0.37893 1.020996,0.80701 1.579645,1.13678 1.88649,1.11359 8.125828,1.31548 10.237692,0.85757 1.999935,-0.43364 3.898135,-1.28213 5.758701,-2.11401 0.493599,-0.2207 2.480755,-0.74184 2.639404,-1.21656 0.06838,-0.20462 0.104444,-1.12708 -0.02,-1.29632 -0.885854,-1.20485 -11.060515,-0.99718 -13.336992,-0.99718 -0.56192,0 -2.015887,0.0689 -0.979782,-0.85757 1.566056,-1.4004 9.267987,-3.803974 11.497408,-4.606953 1.401771,-0.504878 2.762441,-1.153006 4.179059,-1.615424 1.108581,-0.361863 2.314197,-0.53023 3.399232,-0.97723 2.366021,-0.974728 5.07188,-2.283836 7.738256,-1.87469 4.550661,0.698281 0.812784,3.24109 5.758701,3.051358 0.770075,-0.02954 1.522883,-0.419772 2.259491,-0.638194 2.09079,-0.619971 7.315383,-2.19039 9.297903,-1.794915 1.446969,0.28864 2.619922,1.492081 3.85913,2.233671"
       id="path3204" />
    <path
       style="fill:#ffffff;fill-opacity:0;stroke:#000000;stroke-width:1;stroke-linecap:round;stroke-opacity:1"
       d="m 31.23955,169.6084 c 6.835923,-1.23729 12.413257,-2.8081 17.396076,-7.77797 0.596262,-0.59471 2.646397,-3.63948 3.079305,-3.72943 2.22708,-0.46277 3.604085,1.35239 5.618734,1.85474 0.893614,0.22283 2.152565,0.19876 3.079306,0.0997 3.229467,-0.34511 6.72615,-2.71988 9.057957,-4.84627 1.418937,-1.29394 2.337363,-2.58164 4.079081,-3.45023 2.812394,-1.40254 6.630159,-1.57554 9.717807,-1.57554 1.52481,0 3.258291,0.16583 4.758928,-0.15954 0.506852,-0.1099 1.033137,-0.58095 1.41968,-0.87752 0.702366,-0.53888 4.11565,-2.36421 4.858904,-2.57271 3.310956,-0.92879 6.937782,-0.90164 10.397652,-0.75786 0.81789,0.034 3.15717,0.65363 3.87913,0.0997 1.82416,-1.39955 0.81307,-4.84209 1.25972,-6.66113 0.4517,-1.83966 1.14732,-3.68743 1.41968,-5.56424 0.26051,-1.79527 -0.0681,-3.71256 0.04,-5.52435 0.22609,-3.78842 0.65586,-10.4678 -2.83936,-13.00317 -2.69718,-1.95649 -6.51645,-2.11642 -9.657817,-2.57271 -1.007795,-0.14638 -2.198057,0.0393 -3.079305,-0.57836 -5.118616,-3.58752 -3.310176,-11.69597 -10.537624,-14.399214"
       id="path3206" />
    <path
       style="fill:#ffffff;fill-opacity:0;stroke:#000000;stroke-width:1;stroke-linecap:round;stroke-opacity:1"
       d="m 87.706815,120.82658 c -1.827064,-5.01616 -3.113479,-7.76223 -7.938209,-10.1313 -5.40676,-2.65487 -8.719333,-2.13171 -13.756899,0.63819 -1.397505,0.76842 -4.279921,1.48076 -5.13884,3.05136 -0.459095,0.83948 0.636029,2.5401 1.039765,3.33056 1.38304,2.7078 4.854757,7.05359 8.238143,7.21955 1.3736,0.0674 2.750941,-0.28145 4.11907,-0.37892 4.715767,-0.33597 9.097616,-2.11236 13.43697,-3.72944 z"
       id="path3208" />
    <path
       style="fill:#ffffff;fill-opacity:0;stroke:#000000;stroke-width:1;stroke-linecap:round;stroke-opacity:1"
       d="m 74.829719,109.89754 c -1.188016,1.53946 -1.042035,2.65934 -1.179734,4.52717 -0.115094,1.56124 -0.356053,3.56438 -0.02,5.0856 0.106828,0.48358 2.18109,4.96475 2.979327,4.36763 2.635515,-1.9715 3.221519,-10.36615 1.839587,-13.12283"
       id="path3210" />
    <path
       style="fill:#ffffff;fill-opacity:0;stroke:#000000;stroke-width:1;stroke-linecap:round;stroke-opacity:1"
       d="m 106.32262,125.972 c -0.94959,-0.32344 -1.39293,-1.34794 -2.19951,-1.87468 -0.92747,-0.6057 -4.246504,-2.775 -4.898892,-0.75786 -0.511032,1.58009 2.553992,3.24978 3.499212,3.9887 1.2399,0.96929 2.27551,4.03491 3.33925,1.27639 0.21691,-0.56251 0.22411,-2.34309 0.25994,-2.63255 z"
       id="path3212" />
    <path
       style="fill:#ffffff;fill-opacity:0;stroke:#000000;stroke-width:1;stroke-linecap:round;stroke-opacity:1"
       d="m 66.27165,132.85252 c 2.201968,-0.0612 1.49488,6.65009 2.199502,6.92039 3.248041,1.246 5.69631,-3.9367 9.557845,-3.56989 1.965373,0.1867 4.000556,0.7079 5.798693,1.53565 1.033376,0.47571 1.999674,1.22271 3.159287,1.35616 0.693631,0.0798 1.951738,0.44418 2.659401,0.17949 0.921933,-0.34482 1.429766,-1.4204 2.619409,-1.15672 1.692892,0.37522 1.534756,2.9845 3.039314,3.60978 1.049337,0.43608 5.094859,-0.97827 7.258369,-0.41882 0.68051,0.17597 1.76579,0.49263 2.35946,0.87752 0.9967,0.64616 1.67879,2.70726 2.93934,2.81203"
       id="path3214" />
    <path
       style="fill:#ffffff;fill-opacity:0;stroke:#000000;stroke-width:1;stroke-linecap:round;stroke-opacity:1"
       d="m 51.774917,104.17375 c 4.017706,1.68613 9.037643,-0.28941 12.397206,-2.71232 0.900837,-0.64968 1.892628,-1.00175 2.619409,-1.914574 1.393196,-1.749833 -0.570923,-2.920672 0.319929,-3.809209"
       id="path3216" />
    <path
       style="fill:#ffffff;fill-opacity:0;stroke:#000000;stroke-width:1;stroke-linecap:round;stroke-opacity:1"
       d="m 75.729517,94.900019 c -0.186624,-0.478645 -0.283242,-1.003033 -0.559874,-1.435931 -0.289058,-0.452342 -1.239565,-0.723689 -1.699617,-0.957289 -3.17449,-1.611903 -6.627853,-2.035194 -10.197701,-1.715143 -1.312547,0.117676 -2.582362,0.765103 -3.799144,1.19661 -1.015915,0.360278 -2.443647,0.33904 -3.519204,0.33904 -1.449777,0 -2.935716,0.49267 -4.159062,1.196612 -0.353092,0.203176 -1.406113,-0.01958 -1.179735,0.319095 0.808183,1.209122 3.103547,1.795767 4.399007,1.216555"
       id="path3218" />
    <path
       style="fill:#ffffff;fill-opacity:0;stroke:#000000;stroke-width:1;stroke-linecap:round;stroke-opacity:1"
       d="m 44.256613,137.06059 c -0.718302,0.76125 -4.062151,2.33397 -3.819139,3.86905 0.169352,1.06977 2.612798,0.89745 3.299256,0.89745 0.05246,0 1.343144,-0.0314 0.979779,0.27921 -0.648502,0.55442 -3.860358,3.22091 -3.179281,4.3078 0.73564,1.17397 4.198395,0.83456 4.498986,1.09689 0.5681,0.4958 -1.843786,3.72504 -1.899574,4.72661 -0.120264,2.15912 3.259241,0.15953 3.999098,0.89746 0.75575,0.75379 -1.26356,3.10735 -0.479891,3.88899 0.248351,0.2477 1.327621,0.0798 1.619634,0.0798 0.559874,0 1.119748,0 1.679622,0"
       id="path3220" />
    <path
       style="fill:#ffffff;fill-opacity:0;stroke:#000000;stroke-width:1;stroke-linecap:round;stroke-opacity:1"
       d="m 163.80965,95.817422 c 0.19657,1.792083 -0.82935,2.384504 -1.55964,3.789264 -0.72613,1.396754 -1.33975,2.758934 -2.09953,4.148254 -0.88504,1.61835 -2.42771,2.62312 -3.45922,4.08842 -1.26988,1.80391 -2.77377,3.45651 -4.17906,5.16536 -1.41897,1.72549 -2.55554,3.64723 -3.9791,5.36481 -2.67409,3.22638 -5.79863,5.66601 -7.37834,9.69254 -2.93309,7.4762 -0.85311,13.87579 1.09976,21.18001 0.96801,3.62063 1.71183,7.33375 3.03931,10.84927 1.47159,3.89717 3.5757,7.19279 5.7587,10.68972 1.16729,1.86986 2.00509,3.93299 3.23927,5.76367 2.04748,3.03706 4.3245,6.0284 6.89844,8.59565"
       id="path3222" />
    <path
       style="fill:#ffffff;fill-opacity:0;stroke:#000000;stroke-width:1;stroke-linecap:round;stroke-opacity:1"
       d="m 110.58166,64.047412 c -0.81447,0.28462 -0.55431,1.466326 -1.09976,1.994352 -3.05598,2.958391 -5.8074,6.284306 -8.59806,9.513051 -1.241319,1.436193 -2.728547,2.672792 -3.979097,4.108363 -2.469621,2.835002 -4.846005,5.726856 -7.258365,8.595653 -1.151745,1.369664 -4.858904,6.551004 -4.858904,8.416161"
       id="path3224" />
    <path
       style="fill:#ffffff;fill-opacity:0;stroke:#000000;stroke-width:1;stroke-linecap:round;stroke-opacity:1"
       d="m 82.967885,150.76179 c 1.372115,2.92956 1.228267,6.3277 2.239494,9.3535 0.366122,1.09551 0.83363,2.12494 1.139743,3.25079 0.532397,1.95811 0.631782,4.04479 1.099753,6.02294 0.794886,3.36005 2.499519,6.70123 3.779147,9.89198 0.691081,1.72322 1.142961,3.59339 1.659626,5.36481 0.403492,1.3834 1.232659,2.62797 1.81959,3.92886 1.434777,3.18011 2.485593,6.96507 3.839133,10.25097 1.588489,3.85626 3.555339,8.72446 5.598739,12.32509 1.04616,1.8434 2.33303,3.63579 3.37924,5.42463"
       id="path3226" />
    <path
       style="fill:#ffffff;fill-opacity:0;stroke:#000000;stroke-width:1;stroke-linecap:round;stroke-opacity:1"
       d="m 131.39696,81.298546 c -0.88694,1.21317 -1.9572,2.260113 -2.93933,3.390398 -0.64863,0.746471 -1.16685,1.530527 -1.73961,2.333389 -0.34141,0.47857 -1.55302,1.489054 -1.17974,2.233673 0.18134,0.361731 2.95806,-1.774936 3.1393,-1.974408 0.52288,-0.575471 3.85223,-3.7988 3.5392,-4.487288 -0.23533,-0.517578 -0.54654,-0.997175 -0.81982,-1.495764 z"
       id="path3228" />
    <path
       style="fill:#ffffff;fill-opacity:0;stroke:#000000;stroke-width:1;stroke-linecap:round;stroke-opacity:1"
       d="m 119.61962,95.617987 c -1.05266,0.883986 -1.83567,1.975461 -2.6594,3.051354 -0.46847,0.611881 -0.95335,1.239941 -1.35969,1.894639 -0.24585,0.39611 -1.74463,2.44332 -0.4799,2.63254 1.27106,0.19016 5.5439,-5.368821 5.31881,-5.963109 -0.21389,-0.564701 -0.54655,-1.07695 -0.81982,-1.615424 z"
       id="path3230" />
    <path
       style="fill:#ffffff;fill-opacity:0;stroke:#000000;stroke-width:1;stroke-linecap:round;stroke-opacity:1"
       d="m 108.04223,116.06008 c 0.27589,-0.36362 1.06559,-1.288 1.37969,-1.91458 0.32967,-0.65763 0.60564,-1.51257 1.07975,-2.07412 4.25849,-5.04381 0.2979,5.70384 -0.81981,5.70384"
       id="path3232" />
    <path
       style="fill:#ffffff;fill-opacity:0;stroke:#000000;stroke-width:1;stroke-linecap:round;stroke-opacity:1"
       d="m 109.32194,150.50252 c -0.13879,1.39666 -0.34495,2.83686 0.08,4.20808 0.65738,2.12129 1.58398,4.55396 2.77938,6.44175 0.34775,0.54918 1.30198,0.0149 1.25971,-0.55842 -0.0947,-1.28486 -0.8999,-1.95689 -1.41968,-3.05135 -0.44432,-0.93558 -0.13211,-1.95874 -0.57987,-2.85193 -0.73462,-1.46541 -1.47366,-2.59557 -2.11952,-4.18813 z"
       id="path3234" />
    <path
       style="fill:#ffffff;fill-opacity:0;stroke:#000000;stroke-width:1;stroke-linecap:round;stroke-opacity:1"
       d="m 116.32036,168.15252 c -0.0528,-0.0353 -1.16475,-1.20332 -1.83958,-1.057 -0.7413,0.16073 -0.47207,2.38022 -0.41991,2.79209 0.2681,2.11695 2.26647,6.38888 3.91912,8.03723 1.42825,1.42454 0.93538,-1.36171 0.69984,-2.01429 -0.4186,-1.15976 -0.70692,-2.35504 -0.99977,-3.54995 -0.36155,-1.4752 -0.98258,-2.73486 -1.3597,-4.20808 z"
       id="path3236" />
    <path
       style="fill:#ffffff;fill-opacity:0;stroke:#000000;stroke-width:1;stroke-linecap:round;stroke-opacity:1"
       d="m 122.7989,185.68287 c -0.25994,-0.52518 -0.49091,-1.06572 -0.77982,-1.57554 -0.48966,-0.86407 -2.45498,-0.99145 -2.39946,0.3191 0.0922,2.17685 1.5513,4.62632 2.45944,6.56141 0.29096,0.61998 2.28352,4.30131 3.1393,3.25079 0.51767,-0.63547 0.35783,-1.32591 0.19995,-2.05418 -0.16344,-0.75395 -0.17576,-1.49819 -0.51988,-2.23367 -0.90418,-1.93249 -1.44096,-1.79206 -2.09953,-4.26791 z"
       id="path3238" />
  </g>
</svg>
