<?xml version="1.0" encoding="UTF-8" standalone="no"?>
<!-- Created with Inkscape (http://www.inkscape.org/) -->

<svg
   width="141.45924mm"
   height="165.55617mm"
   viewBox="0 0 141.45924 165.55617"
   version="1.1"
   id="svg5"
   xmlns="http://www.w3.org/2000/svg"
   xmlns:svg="http://www.w3.org/2000/svg">
  <defs
     id="defs2" />
  <g
     id="layer6"
     style="display:inline"
     transform="translate(-30.180682,-57.183203)">
    <path
       style="fill:#ffffff;fill-opacity:0;stroke:#000000;stroke-width:1;stroke-linecap:round;stroke-opacity:1"
       id="path2906-5"
       d="M 99.5971,98.522311 41.902307,131.81572 -15.778027,98.497265 -15.763566,31.885404 41.931228,-1.4080032 99.611561,31.91045 Z"
       transform="matrix(1.2153931,0,0,1.2320147,50.084931,59.788734)" />
    <path
       style="fill:#ffffff;fill-opacity:0;stroke:#000000;stroke-width:1;stroke-linecap:round;stroke-opacity:1"
       d="m 110.26173,65.044589 c -0.59899,0.931855 -0.99237,2.131737 -1.89957,2.85192 -3.10283,2.463178 -6.23098,4.951796 -9.357893,7.43893 -2.0969,1.667864 -4.411197,3.047153 -6.538524,4.686723 -1.674598,1.290643 -3.130923,2.842006 -4.818914,4.148251 -2.772931,2.145819 -5.896052,4.098322 -8.458091,6.521527 -1.183019,1.118909 -2.337097,2.21792 -3.599191,3.25079 -2.674683,2.188908 -4.525177,5.351041 -6.95843,7.77797 -2.174695,2.16904 -4.909699,4.6157 -7.5383,5.62407 -0.534551,0.20506 -0.89894,0.81726 -1.41968,1.07695 -2.109832,1.05217 -4.497689,1.62364 -6.738479,2.31344 -1.968069,0.60585 -4.046456,1.21208 -6.118622,1.37611 -5.014582,0.39694 -8.913908,-1.87952 -13.496957,-3.27074 -0.858327,-0.26055 -1.176501,-1.14621 -2.079529,-1.29633"
       id="path3152" />
    <path
       style="fill:#ffffff;fill-opacity:0;stroke:#000000;stroke-width:1;stroke-linecap:round;stroke-opacity:1"
       d="m 31.999377,169.76795 c 1.138606,1.53958 2.959508,2.39818 4.918893,2.1539 1.118113,-0.1394 2.262158,-0.39824 3.319251,-0.7778 1.879729,-0.67494 3.894375,-2.41459 6.098624,-1.75503 1.016617,0.30419 1.682589,3.0558 2.239494,3.88899 0.514927,0.77038 1.731783,1.45396 2.039541,2.31344 0.09413,0.26288 0.03869,1.01235 0.279937,1.15673 1.07972,0.64614 4.347549,-0.28018 4.858904,0.85757 0.635492,1.41395 0.954989,6.04352 2.03954,6.80073 0.644761,0.45016 5.189903,-0.0509 6.018644,-0.17949 0.117427,-0.0182 1.35314,-0.087 1.399683,0 0.517654,0.96808 0.291862,2.6417 0.479893,3.72944 0.333618,1.92996 2.834156,6.51373 4.698939,7.6583 0.4488,0.27547 3.776697,-0.89113 4.978879,-0.53847 0.9843,0.28875 1.20637,3.4011 1.819587,4.24797 1.149231,1.5871 3.195968,-1.03506 4.359018,-0.33904 1.559164,0.93306 2.877233,5.15074 4.578967,5.80356 1.743916,0.66899 5.290383,-1.45433 7.218373,-0.61825 1.922285,0.8336 0.886116,3.57444 2.319478,4.60695 1.895475,1.3654 4.283024,0.0428 6.218598,0.95729 1.144,0.54048 0.777,1.97532 1.47967,2.89181 0.86151,1.12366 2.23573,1.07673 3.27926,1.87469 0.50757,0.38813 0.88791,1.0976 1.35969,1.49576"
       id="path3154" />
    <path
       style="fill:#ffffff;fill-opacity:0;stroke:#000000;stroke-width:1;stroke-linecap:round;stroke-opacity:1"
       d="m 51.215046,153.53393 c -0.891556,1.87162 -2.706844,2.73588 -4.139068,4.10837 -3.465806,3.32123 -5.347962,4.92294 -9.777796,7.04005 -2.926355,1.39857 -2.454947,2.41317 -5.858679,2.41317"
       id="path3156" />
    <path
       style="fill:#ffffff;fill-opacity:0;stroke:#000000;stroke-width:1;stroke-linecap:round;stroke-opacity:1"
       d="m 66.431614,106.18805 c 0.456261,6.80776 -3.277931,12.82016 -5.038865,19.16571 -0.614201,2.21327 -0.552331,4.56357 -1.259716,6.76085 -0.828931,2.57481 -2.398482,4.83858 -3.499209,7.29932 -0.407922,0.91193 -0.458267,1.95135 -0.919795,2.83198 -1.101056,2.10089 -2.316938,4.35714 -2.879349,6.68107 -0.07351,0.30375 0.07618,0.63999 -0.02,0.93735 -0.400748,1.23908 -1.778238,2.57501 -1.879576,3.88898"
       id="path3158" />
    <path
       style="fill:#ffffff;fill-opacity:0;stroke:#000000;stroke-width:1;stroke-linecap:round;stroke-opacity:1"
       d="m 164.32954,95.657873 c -0.41324,0.498588 -0.82648,0.997174 -1.23972,1.495763 -0.27994,0.226026 -0.59203,0.417206 -0.83981,0.67808 -0.7135,0.751178 -1.40948,1.82632 -1.89958,2.712314 -0.50561,0.91404 -1.70397,1.77909 -2.43944,2.473 -1.69244,1.59678 -5.17429,2.56952 -7.31836,3.74938 -1.50986,0.83086 -3.60531,3.0713 -5.35879,3.0713"
       id="path3160" />
    <path
       style="fill:#ffffff;fill-opacity:0;stroke:#000000;stroke-width:1;stroke-linecap:round;stroke-opacity:1"
       d="m 113.22106,130.43935 c 1.55523,4.03144 4.62137,7.80886 8.53808,9.81221 0.53919,0.27579 1.28072,0.61731 1.87957,0.75785 0.28716,0.0674 0.9597,-0.10974 1.19973,0.0399 1.12616,0.70202 2.39308,0.83637 3.75915,0.63819 0.98167,-0.14242 1.72091,-0.73641 2.61941,-1.07695 1.80402,-0.68374 3.70623,-1.18669 5.27881,-2.39322 1.65804,-1.2721 2.22006,-3.62592 3.05931,-5.40469 0.77133,-1.63481 1.92363,-3.63472 2.03954,-5.48447"
       id="path3162" />
    <path
       style="fill:#ffffff;fill-opacity:0;stroke:#000000;stroke-width:1;stroke-linecap:round;stroke-opacity:1"
       d="m 149.21295,117.31652 c 0.51988,-0.17949 1.02751,-0.39946 1.55964,-0.53847 0.17004,-0.0444 0.63464,0.76737 0.69985,0.89746 1.24325,2.48004 0.0799,4.90645 -0.11998,7.49875 -0.1251,1.6221 -0.0807,3.4181 0.06,5.04571 0.42217,4.8844 1.52427,9.342 3.91912,13.72113 0.32526,0.59478 1.79527,2.34983 1.25971,3.15108 -0.26746,0.40016 -4.44275,-2.07682 -5.17883,-1.95447 -0.0964,0.016 0.4218,1.38211 0.45989,1.47582 0.55324,1.36111 1.05977,2.8613 1.05977,4.34769 0,0.36006 -1.35129,-0.19133 -1.47967,-0.25926 -1.47287,-0.7795 -2.36203,-2.13593 -3.65917,-3.13114 -0.24812,-0.19036 -0.0771,0.62682 -0.04,0.93735 0.048,0.40219 0.1659,4.02179 -0.19995,3.94881 -1.26105,-0.25155 -2.39648,-1.21457 -3.41923,-1.89463 -5.07573,-3.37502 -7.41833,-6.17562 -7.41833,-12.1456"
       id="path3164" />
    <path
       style="fill:#ffffff;fill-opacity:0;stroke:#000000;stroke-width:1;stroke-linecap:round;stroke-opacity:1"
       d="m 145.19385,109.91748 c -3.05657,1.94058 0.23908,11.87159 3.9791,8.55576 0.2517,-0.22314 0.6215,-0.59764 0.71984,-0.95728"
       id="path3166" />
    <path
       style="fill:#ffffff;fill-opacity:0;stroke:#000000;stroke-width:1;stroke-linecap:round;stroke-opacity:1"
       d="m 118.13995,137.16031 c 0.1338,3.0549 -3.50859,6.47941 -1.7596,9.55294 0.57316,1.00723 1.5409,1.55362 2.29948,2.37328 4.27872,4.62323 11.51069,8.71684 17.65602,10.1313 0.64631,0.14876 1.33015,0.98497 1.95956,1.25644 1.37917,0.59485 2.7106,1.2638 4.05908,1.95447 5.12023,2.62247 7.88181,7.99366 11.19748,12.34503 0.41496,0.54459 0.61496,1.26404 1.03976,1.81486 0.81011,1.05041 1.54715,2.22906 2.37947,3.25079 1.49678,1.8374 4.06883,3.785 5.05886,5.88334"
       id="path3168" />
    <path
       style="fill:#ffffff;fill-opacity:0;stroke:#000000;stroke-width:1;stroke-linecap:round;stroke-opacity:1"
       d="m 78.048995,97.313183 c -0.493223,0.611602 -0.982827,1.22614 -1.479667,1.834803 -0.388651,0.476123 -2.921367,5.894184 -0.559874,4.088414 0.947978,-0.72489 1.400318,-1.86527 2.279486,-2.63254 1.701668,-1.485087 3.550065,-2.867281 5.018868,-4.606948 0.174842,-0.207086 0.09998,-0.558167 0.09998,-0.79774 0,-1.281821 -2.329841,0.301258 -2.799371,0.578361 -0.856829,0.505682 -1.706279,1.023768 -2.55942,1.53565 z"
       id="path3170" />
    <path
       style="fill:#ffffff;fill-opacity:0;stroke:#000000;stroke-width:1;stroke-linecap:round;stroke-opacity:1"
       d="m 94.265336,85.526569 c -0.786905,0.992505 -2.03145,1.485863 -2.999322,2.233674 -0.96706,0.747183 -2.088602,1.843833 -2.679396,2.931697 -0.06779,0.12482 -0.491529,1.188786 -0.239948,1.296326 0.517801,0.221337 1.013159,-0.494213 1.499664,-0.777796 2.414394,-1.407342 4.853496,-2.907437 7.058409,-4.666781 0.391038,-0.312018 0.720172,-0.85356 0.959781,-1.276385 0.744651,-1.314032 -2.10915,-0.28753 -3.599188,0.259265 z"
       id="path3172" />
    <path
       style="fill:#ffffff;fill-opacity:0;stroke:#000000;stroke-width:1;stroke-linecap:round;stroke-opacity:1"
       d="m 108.06222,77.409563 c -1.25521,0.545253 -2.4486,1.207873 -3.65917,1.834803 -0.28146,0.145765 -4.433451,2.521741 -2.97933,3.350509 0.14466,0.08244 0.35031,0.14482 0.51989,0.09972 2.58311,-0.687038 4.92544,-2.01254 7.27835,-3.210904 0.87558,-0.445942 1.08672,-0.691954 1.49967,-1.515705 0.13484,-0.268981 0.81988,-0.714894 0.51988,-0.73791 -0.96559,-0.07408 -2.44681,0.130786 -3.17929,0.179491 z"
       id="path3174" />
    <path
       style="fill:#ffffff;fill-opacity:0;stroke:#000000;stroke-width:1;stroke-linecap:round;stroke-opacity:1"
       d="m 121.0193,74.657359 c -0.94451,0.573188 -6.35631,1.639258 -6.41855,2.632543 -0.0605,0.96519 5.03023,0.420164 5.59874,0.378926 2.30306,-0.16706 5.40516,0.06619 4.79892,-0.538475 -0.52672,-0.525351 -1.94432,-0.175701 -2.49944,-0.717965 -0.54737,-0.534688 -0.98644,-1.170019 -1.47967,-1.755029 z"
       id="path3176" />
    <path
       style="fill:#ffffff;fill-opacity:0;stroke:#000000;stroke-width:1;stroke-linecap:round;stroke-opacity:1"
       d="m 46.956006,170.44603 c 2.415373,-0.36869 4.767244,-0.30021 6.33857,1.85474 0.498522,0.68369 0.66322,1.51432 1.099751,2.23368 0.571333,0.94148 1.059762,1.6538 1.059762,2.7522"
       id="path3178" />
    <path
       style="fill:#ffffff;fill-opacity:0;stroke:#000000;stroke-width:1;stroke-linecap:round;stroke-opacity:1"
       d="m 65.131907,184.94496 c -0.06099,-0.49598 -0.09156,-2.05536 -0.499888,-2.77215 -0.428165,-0.75161 -6.322142,-3.41034 -7.458318,-3.41034 -0.388975,0 -1.127535,0.40298 -1.459672,0.57836"
       id="path3180" />
    <path
       style="fill:#ffffff;fill-opacity:0;stroke:#000000;stroke-width:1;stroke-linecap:round;stroke-opacity:1"
       d="m 75.84949,195.65462 c 0.204589,-4.40737 -3.833937,-6.35896 -7.13839,-8.27655 -0.627517,-0.36416 -2.022245,-0.35252 -2.299483,-0.59831"
       id="path3182" />
    <path
       style="fill:#ffffff;fill-opacity:0;stroke:#000000;stroke-width:1;stroke-linecap:round;stroke-opacity:1"
       d="m 81.588196,198.76581 c -1.722112,-2.14719 -2.847827,-3.88093 -5.178832,-2.05418"
       id="path3184" />
    <path
       style="fill:#ffffff;fill-opacity:0;stroke:#000000;stroke-width:1;stroke-linecap:round;stroke-opacity:1"
       d="m 94.265336,203.01378 c -0.64652,-0.50524 -1.29304,-1.01047 -1.939562,-1.51571 -0.266605,-0.26591 -0.505098,-0.56337 -0.79982,-0.79774 -1.8801,-1.4951 -5.140507,-1.69551 -7.378335,-1.11684 -0.294335,0.0761 -3.186149,0.65814 -1.859581,0.65814"
       id="path3186" />
    <path
       style="fill:#ffffff;fill-opacity:0;stroke:#000000;stroke-width:1;stroke-linecap:round;stroke-opacity:1"
       d="m 94.445295,204.84858 c 0.607846,-0.0346 1.735929,0.18656 2.57942,0.25926 3.711265,0.3199 4.183375,1.18104 5.118845,5.00583 1.1586,2.78329 3.93189,0.36605 5.55875,1.41599 0.84039,0.54236 0.98299,1.82141 1.69961,2.39322 0.20834,0.16623 0.81865,0.49742 0.85981,0.53847"
       id="path3188" />
  </g>
</svg>
