<?xml version="1.0" encoding="UTF-8" standalone="no"?>
<!-- Created with Inkscape (http://www.inkscape.org/) -->

<svg
   width="141.45924mm"
   height="165.55617mm"
   viewBox="0 0 141.45924 165.55617"
   version="1.1"
   id="svg5"
   xmlns="http://www.w3.org/2000/svg"
   xmlns:svg="http://www.w3.org/2000/svg">
  <defs
     id="defs2" />
  <g
     id="layer5"
     style="display:inline"
     transform="translate(-30.180682,-57.183203)">
    <path
       style="fill:#ffffff;fill-opacity:0;stroke:#000000;stroke-width:1;stroke-linecap:round;stroke-opacity:1"
       id="path2906-2"
       d="M 99.5971,98.522311 41.902307,131.81572 -15.778027,98.497265 -15.763566,31.885404 41.931228,-1.4080032 99.611561,31.91045 Z"
       transform="matrix(1.2153931,0,0,1.2320147,49.99075,59.529468)" />
    <path
       style="fill:#ffffff;fill-opacity:0;stroke:#000000;stroke-width:1;stroke-linecap:round;stroke-opacity:1"
       d="m 30.899626,107.64392 c 2.890949,2.84537 7.570452,2.02259 10.957528,4.14825 2.409521,1.51216 4.886749,3.30158 6.87845,5.34486 1.480915,1.51927 2.665227,3.33297 4.099076,4.9061 1.413917,1.55127 3.1716,2.73023 4.638952,4.24797 1.836828,1.8999 3.205261,4.19661 4.718937,6.34204 0.775525,1.09919 1.854559,1.90541 2.719387,2.91175 2.004547,2.33256 4.021127,4.62523 6.07863,6.9204 2.599224,2.89947 4.879822,6.04341 7.318349,9.07429 2.268593,2.81967 4.52946,5.66988 6.898444,8.39622 0.929097,1.06925 1.578962,2.31276 2.599414,3.33056 0.402477,0.40144 2.585122,3.23941 2.259492,3.51006 -1.187913,0.98736 -4.257299,-1.34839 -5.378789,-1.77497 -4.123028,-1.56825 -8.147121,-1.9532 -12.457191,-2.53283 -2.627884,-0.3534 -5.255059,-0.88314 -7.898218,-1.09689 -3.371122,-0.27262 -6.886249,0.45168 -10.237692,0.7778 -2.237396,0.21771 -4.491416,-0.007 -6.718485,0.35898 -1.342575,0.22036 -2.711251,0.88437 -3.959106,1.39605 -1.891686,0.77567 -3.578844,2.00414 -5.398783,2.91175 -1.141899,0.56946 -2.356003,0.7581 -3.499212,1.27638 -1.037048,0.47016 -2.221225,1.53565 -3.339246,1.53565"
       id="path3110" />
    <path
       style="fill:#ffffff;fill-opacity:0;stroke:#000000;stroke-width:1;stroke-linecap:round;stroke-opacity:1"
       d="m 88.166711,166.81631 c -3.117138,-3.82631 -7.201553,-6.73357 -10.977525,-9.87204 -4.229092,-3.51508 -8.64091,-6.7861 -12.957077,-10.17119 -1.235241,-0.96877 -2.151787,-2.1244 -3.299256,-3.15107 -1.597708,-1.42951 -3.386415,-2.75735 -4.758925,-4.42746 -1.051833,-1.2799 -2.299206,-2.49819 -3.179284,-3.90893 -0.937847,-1.50333 -1.731298,-3.09177 -2.779374,-4.52717 -1.71391,-2.34731 -3.682881,-4.51894 -5.438775,-6.82068 -1.709097,-2.24041 -3.274216,-4.517 -5.178829,-6.62125 -1.282341,-1.41674 -2.763883,-2.87657 -4.279038,-4.04853 -1.521084,-1.17655 -4.955122,-2.61857 -4.239043,-4.92605"
       id="path3112" />
    <path
       style="fill:#ffffff;fill-opacity:0;stroke:#000000;stroke-width:1;stroke-linecap:round;stroke-opacity:1"
       d="m 110.42169,64.266791 c -1.6582,3.676676 -5.23886,5.384337 -7.89822,8.097065 -1.34412,1.371094 -2.09793,3.012389 -3.299252,4.467346 -1.694551,2.05232 -3.988949,3.622778 -5.638729,5.703843 -6.350992,8.011255 -10.440622,17.813055 -9.677818,28.160235 0.108887,1.47698 0.715796,2.94842 1.099754,4.36763 0.252222,0.93228 0.378309,1.87937 0.759828,2.77214 2.146522,5.02298 5.838751,9.13475 9.257913,13.28238 0.832554,1.00993 1.497129,2.17805 2.319476,3.2109 0.620572,0.77943 1.407133,1.32735 1.939562,2.19379 1.190256,1.93695 1.606346,4.06525 2.439446,6.1426 0.72552,1.80908 1.44027,3.76013 1.63964,5.72379 1.00836,9.93168 -3.652739,19.44997 -4.718941,29.11752 -0.352155,3.19308 0.211672,6.14587 0.459896,9.29367 0.129564,1.64304 -0.06697,3.31842 0,4.96594 0.210431,5.1771 0.558551,10.74463 2.819365,15.4961 1.35926,2.85671 3.29621,5.33075 4.93889,7.9774 0.45439,0.73211 1.71565,1.69129 1.97955,2.17385"
       id="path3114" />
    <path
       style="fill:#ffffff;fill-opacity:0;stroke:#000000;stroke-width:1;stroke-linecap:round;stroke-opacity:1"
       d="m 151.57241,88.538041 c -1.76538,0.848527 -2.57116,2.697591 -3.93911,3.928869 -0.82313,0.7409 -4.21768,3.66689 -4.67894,4.587007 -0.30391,0.606243 -0.66141,1.297885 -1.19973,1.834804 -0.002,0.0021 -0.76221,3.960659 -0.83981,4.347679 -0.0115,0.0574 -1.24754,1.79232 -0.75983,1.95447 0.63465,0.211 1.44661,0.013 2.11952,0.19943 0.57873,0.16035 1.71377,0.69503 2.33947,0.35899 1.36145,-0.73118 -0.23675,-4.09478 0.25995,-5.0856 0.662,-1.320558 6.91372,-5.197773 8.57806,-4.048529 2.2337,1.542392 3.75166,4.174969 5.3388,6.302149 1.38468,1.85583 2.04885,4.0043 2.39945,6.24232 0.14331,0.91476 0.74198,1.80133 1.03977,2.69237 0.45694,1.36724 0.57987,2.93389 0.57987,4.36763 0,1.51323 -0.0832,2.97213 -0.57987,4.38757 -0.3049,0.86887 -1.02193,1.72377 -1.23972,2.59266 -0.14319,0.57129 -0.34519,1.36501 -0.73983,1.81486 -0.3431,0.39109 -0.67289,0.69512 -0.87981,1.17666 -0.66753,1.55353 -0.93978,-3.46379 -0.93978,-3.68955 0,-0.46534 0.3875,-1.65371 0,-1.39604 -0.057,0.0379 -1.63422,4.90257 -1.93956,5.66395 -0.0733,0.18279 -0.47528,-0.88041 -0.4799,-0.89745 -0.26501,-0.978 -0.45989,-2.07319 -0.45989,-3.09125 0,-0.29915 0.15196,-1.15513 0,-0.89745 -0.32989,0.55935 -0.42883,1.30682 -0.57987,1.93452 -0.13688,0.56884 -0.10677,0.4567 -0.31993,1.057 -0.27272,0.76803 -1.47267,3.57885 -1.87958,0.73791 -0.1599,-1.11644 0.45801,-3.13574 -0.31992,-4.00864 -1.66079,-1.86353 2.05398,-4.55154 2.35946,-6.50159 0.1757,-1.12152 0.04,-2.33294 0.04,-3.47017 0,-0.41633 -0.08,-0.81534 -0.08,-1.21655 0,-0.11302 0,-0.45206 0,-0.33904 0,1.02563 0.22767,2.07907 0.13997,3.09124 -0.21045,2.42893 -2.32146,8.81212 -5.07885,9.81221 -1.80185,0.65351 -5.67613,0.76149 -6.83846,2.11401 -0.25711,0.29918 1.40449,4.26082 1.61963,4.92605 0.493,1.52432 0.31034,3.10435 0.35992,4.68672 0.0687,2.19179 0.3252,4.35702 0.21995,6.56142 -0.10038,2.10265 -0.55304,4.27089 -0.27994,6.38192 0.153,1.18267 0.98993,2.22881 1.41968,3.31062 1.25718,3.16463 2.56028,6.40052 4.23905,9.37345 1.12097,1.98511 2.80519,3.95335 3.65917,6.08277 0.44894,1.11942 1.1653,2.37632 1.31971,3.56989 0.20868,1.61305 0.15152,2.87341 0.81981,4.46734 1.02164,2.43671 3.81914,7.36147 3.81914,9.95181"
       id="path3116" />
    <path
       style="fill:#ffffff;fill-opacity:0;stroke:#000000;stroke-width:1;stroke-linecap:round;stroke-opacity:1"
       d="m 87.72681,92.985443 c -4.571772,2.779342 -9.383535,5.254887 -14.396752,7.159717 -0.237159,0.0901 -1.833853,0.56414 -2.099527,0.29915 -0.271981,-0.27127 0.932355,-2.592965 1.05976,-2.991523 0.266187,-0.832683 0.356505,-1.818523 0.739833,-2.612599 0.29156,-0.603969 0.776997,-1.307245 0.979781,-1.954464 0.233664,-0.745783 -0.195299,-1.620477 0.219951,-2.293503 0.902806,-1.463246 3.993814,-1.704229 5.53875,-2.652485 1.120508,-0.687753 1.870321,-4.537043 1.659626,-4.567065 -0.259374,-0.03696 -3.360452,2.889398 -4.059084,1.495763 -1.224936,-2.443504 0.779822,-4.187071 0.779822,-6.361977 0,-0.384199 -0.671033,0.384751 -0.959784,0.63819 -0.749416,0.657773 -1.505865,1.382292 -2.199502,2.074125 -0.07338,0.07319 -0.768506,0.7206 -0.779825,0.698023 -0.109204,-0.217839 0.06226,-3.847584 0,-3.888983 -0.943002,-0.627033 -2.902887,2.335496 -3.379237,2.85192 -0.58328,0.632352 -1.19973,1.393994 -1.19973,1.356159 0,-0.719294 -0.01312,-1.161772 -0.579868,-1.475819 -0.160851,-0.08913 0.06208,-0.512535 -0.119973,-0.538475 -0.80903,-0.115274 -2.116902,2.977004 -2.35947,3.530002 -2.61e-4,5.29e-4 -0.605205,1.415989 -0.399909,1.415989 0.332459,0 -0.187021,-0.638077 -0.279937,-0.957289 -0.234461,-0.80549 0.217529,-1.515708 -0.919793,-1.515708 -0.264107,0 -0.429193,-0.07483 -0.579868,0.179493 -0.628806,1.061366 -0.329179,2.395075 -0.959784,3.510058 -1.408393,2.490206 -2.887631,4.975627 -3.699166,7.758023 -0.582962,1.998723 -1.012397,9.161245 -0.619861,11.666955 0.216966,1.38497 1.251683,2.67635 1.859582,3.88898 0.532365,1.06197 0.494273,3.45882 1.779598,4.02859 1.038865,0.46052 3.004179,-0.0974 4.139067,-0.0399 0.680895,0.0345 1.287209,0.33885 1.939563,0.4587 0.933019,0.17143 2.031193,0.0798 2.979327,0.0798 1.228786,0 2.380316,0.43169 3.599188,0.51853 2.475833,0.17639 4.337156,-0.45296 6.638504,-1.05701 0.705022,-0.18505 1.631157,0.19213 2.2195,-0.25926"
       id="path3118" />
    <path
       style="fill:#ffffff;fill-opacity:0;stroke:#000000;stroke-width:1;stroke-linecap:round;stroke-opacity:1"
       d="m 119.29969,74.49781 c -1.21702,1.882029 -2.30344,3.930896 -3.69916,5.683901 -0.96502,1.212046 -1.8176,2.400202 -2.6794,3.689548 -0.69976,1.046917 -1.91348,3.412075 -1.13974,4.646838 0.0697,0.111178 0.0695,0.353491 0.19995,0.339039 0.91356,-0.101242 1.77631,-1.487453 2.35947,-2.054182 2.47499,-2.405259 3.89632,-4.160674 4.81891,-7.578532 0.30656,-1.135663 1.01423,-2.712318 -0.4199,-2.712318"
       id="path3120" />
    <path
       style="fill:#ffffff;fill-opacity:0;stroke:#000000;stroke-width:1;stroke-linecap:round;stroke-opacity:1"
       d="m 108.32217,91.94838 c -1.56953,1.528175 -1.39932,1.315595 -2.61941,2.632543 -1.78237,1.923849 -3.24681,4.121124 -3.5592,6.800737 -0.0849,0.72868 -0.39991,1.41943 -0.39991,2.23367 0,0.20608 -0.17684,0.72408 0,0.61825 2.70412,-1.61825 3.523,-5.057165 4.63895,-7.777968 0.65144,-1.588251 1.40107,-2.83396 1.93957,-4.507232 z"
       id="path3122" />
    <path
       style="fill:#ffffff;fill-opacity:0;stroke:#000000;stroke-width:1;stroke-linecap:round;stroke-opacity:1"
       d="m 101.10379,111.852 c 0.0419,3.03736 0.89815,5.5974 2.6594,8.03723 0.68931,0.95489 1.55621,1.76814 2.13952,2.7921 0.14897,0.26149 0.92684,1.64171 1.35969,1.29633 0.25667,-0.2048 0.16703,-0.61365 0.17997,-0.89746 0.0335,-0.73517 0.14856,-1.57044 -0.06,-2.29351 -0.29053,-1.00732 -2.33158,-4.30919 -3.0993,-5.20525 -1.4035,-1.63813 -2.00215,-1.57298 -3.17929,-3.72944 z"
       id="path3124" />
    <path
       style="fill:#ffffff;fill-opacity:0;stroke:#000000;stroke-width:1;stroke-linecap:round;stroke-opacity:1"
       d="m 110.14176,129.76127 c -0.67389,1.85867 -0.24288,2.64665 0.57987,4.28786 0.26446,0.52755 0.64077,0.97111 0.93978,1.47581 0.26352,0.44479 1.06618,2.99314 1.97956,1.73509 0.31259,-0.43056 0.37928,-0.72366 0.31993,-1.25644 -0.22804,-2.04696 -2.01242,-3.26718 -3.69917,-4.10836"
       id="path3126" />
    <path
       style="fill:#ffffff;fill-opacity:0;stroke:#000000;stroke-width:1;stroke-linecap:round;stroke-opacity:1"
       d="m 114.50077,144.35992 c -0.46459,1.23301 -0.31992,2.49178 -0.31992,3.76932 0,5.45419 2.7746,6.75154 2.93933,0.17949 0.0186,-0.74043 0.15856,-1.65283 0,-2.37328 -0.17487,-0.79455 -1.49865,-2.70433 -2.61941,-1.57553 -0.0933,0.7512 -0.18662,1.50241 -0.27993,2.25361 0.02,0.0199 0.04,0.0399 0.06,0.0598"
       id="path3128" />
    <path
       style="fill:#ffffff;fill-opacity:0;stroke:#000000;stroke-width:1;stroke-linecap:round;stroke-opacity:1"
       d="m 115.08064,158.22066 c -0.18715,1.86124 -0.60981,3.66983 -0.8598,5.52435 -0.0158,0.11711 -0.78593,6.1426 0,6.1426 1.54283,0 2.06171,-3.75774 2.31947,-4.74656 0.0142,-0.0546 -0.122,-7.75814 -1.45967,-6.92039 -0.84529,0.52938 -0.55987,1.91457 -0.83981,2.87186"
       id="path3130" />
    <path
       style="fill:#ffffff;fill-opacity:0;stroke:#000000;stroke-width:1;stroke-linecap:round;stroke-opacity:1"
       d="m 114.12086,175.69117 c -1.08232,1.67514 -0.68908,3.13573 -0.77983,4.94599 -0.0855,1.7056 -0.37918,3.34775 -0.06,5.04571 0.0797,0.42395 0.79218,2.17457 1.45967,1.67525 0.92114,-0.68906 1.14446,-6.40734 0.95978,-7.55859 -0.24344,-1.51759 -0.91195,-2.71361 -1.57964,-4.10836 z"
       id="path3132" />
    <path
       style="fill:#ffffff;fill-opacity:0;stroke:#000000;stroke-width:1;stroke-linecap:round;stroke-opacity:1"
       d="m 114.24083,194.81699 c -1.57216,0.92936 1.81636,10.55173 3.49921,9.71249 1.39885,-0.6976 -3.03081,-8.92496 -3.49921,-9.71249 z"
       id="path3134" />
    <path
       style="fill:#ffffff;fill-opacity:0;stroke:#000000;stroke-width:1;stroke-linecap:round;stroke-opacity:1"
       d="m 159.51062,183.48908 c 0.35643,0.64116 1.46055,3.25079 2.25949,3.25079"
       id="path3136" />
  </g>
</svg>
