<?xml version="1.0" encoding="UTF-8" standalone="no"?>
<!-- Created with Inkscape (http://www.inkscape.org/) -->

<svg
   width="141.45924mm"
   height="165.55617mm"
   viewBox="0 0 141.45924 165.55617"
   version="1.1"
   id="svg5"
   xmlns="http://www.w3.org/2000/svg"
   xmlns:svg="http://www.w3.org/2000/svg">
  <defs
     id="defs2" />
  <g
     id="layer4"
     style="display:inline"
     transform="translate(-30.180682,-57.183203)">
    <path
       style="fill:#ffffff;fill-opacity:0;stroke:#000000;stroke-width:1;stroke-linecap:round;stroke-opacity:1"
       id="path2906"
       d="M 99.5971,98.522311 41.902307,131.81572 -15.778027,98.497265 -15.763566,31.885404 41.931228,-1.4080032 99.611561,31.91045 Z"
       transform="matrix(1.2153931,0,0,1.2320147,50.084805,59.58603)" />
    <path
       style="fill:#ffffff;fill-opacity:0;stroke:#000000;stroke-width:1;stroke-linecap:round;stroke-opacity:1"
       d="m 31.426258,106.80629 c 2.378112,-0.10929 4.705927,-0.54628 7.058409,-0.93734 3.436784,-0.57131 7.159154,-0.62885 10.617604,-0.25927 1.52372,0.16283 3.026762,-0.0692 4.538978,0.23933 2.248246,0.45867 4.587824,1.27315 6.798466,1.91457 1.800555,0.52244 3.794021,1.04148 5.518755,1.67526 1.753923,0.6445 7.298553,3.41485 9.257911,2.51288 0.808572,-0.37222 1.481458,-1.38849 2.139519,-1.99435 0.510844,-0.47033 1.369499,-1.20714 1.559647,-1.89464 0.692897,-2.50521 -0.749101,-5.49665 -2.079529,-7.5187 -1.124199,-1.708607 -2.346497,-2.764556 -2.479442,-4.886157 -0.03582,-0.571577 -0.18147,-1.59811 0.02,-2.133955 0.448985,-1.194184 3.380089,-1.526577 3.139292,-4.088421 -0.294463,-3.132751 -2.708532,-6.153428 -0.05999,-8.795086 1.002606,-1.000001 2.060926,-1.835843 3.17928,-2.672429 0.4615,-0.345226 0.926074,-0.11752 1.359694,-0.658138 0.471832,-0.588256 0.08615,-1.358958 0.359921,-2.014294 0.595161,-1.424675 2.114883,-2.373474 3.419229,-3.091243 0.935969,-0.515054 2.327701,-1.435931 3.439223,-1.435931 0.126638,0 0.379915,-0.12664 0.379915,0 0,0.266859 -1.05678,1.013849 -1.219726,1.276384 -0.96212,1.550154 0.312825,5.326637 -1.339697,6.242317 -0.748297,0.414639 -1.568336,0.319096 -2.459445,0.319096 -0.102123,0 -1.22886,-0.112829 -1.219726,-0.119661 0.200268,-0.149809 3.650697,-0.09972 4.199054,-0.09972 0.09815,0 0.433837,-0.04557 0.499888,0.05983 0.276383,0.441063 0.05999,1.815198 0.05999,2.313446 0,2.276893 -5.684049,0.480105 -3.819139,5.045707 0.116986,0.286401 -0.132133,0.97464 0.159962,1.156724 2.887893,1.800241 6.884495,-9.245169 7.758253,-10.510229 1.87548,-2.715395 6.518002,-4.646552 9.397886,-6.202431 1.34888,-0.728747 2.52127,-1.762157 3.67917,-2.73226 1.46422,-1.226748 3.4446,-1.86011 4.89889,-3.310622"
       id="path3022" />
    <path
       style="fill:#ffffff;fill-opacity:0;stroke:#000000;stroke-width:1.00064;stroke-linecap:round;stroke-opacity:1"
       d="m 30.526784,170.0174 c 4.175534,-2.34127 8.572043,-3.58898 13.233663,-4.34697 1.695323,-0.27566 3.364844,-0.63174 5.099026,-0.46287 7.534661,0.73369 14.43882,3.2975 20.971487,7.10407 0.389169,0.22678 5.817702,5.79805 6.388664,5.37335 0.630288,-0.46884 0.18771,-3.84452 0.396812,-4.74948 0.311089,-1.34632 0.600112,-2.91581 1.289637,-4.12559 0.929684,-1.63114 2.048538,-3.62828 3.531624,-4.78972 4.163775,-3.26074 13.448866,-7.31164 18.431891,-8.63357 8.276432,-2.19562 16.902912,-2.85773 25.415772,-2.85773 1.56655,0 10.16457,1.37541 10.97184,0.96599 0.18049,-0.0915 -1.05378,-3.37037 -1.15076,-3.78347 -0.69734,-2.97082 -1.16833,-6.02847 -0.61505,-9.09644 0.66932,-3.71138 3.24751,-8.56377 4.92046,-11.93405 2.04536,-4.12051 3.89632,-8.48558 6.38866,-12.35666 0.63521,-0.98661 1.46546,-1.81407 2.22215,-2.69674 1.7697,-2.06431 3.31446,-4.39154 5.25775,-6.29908 1.30107,-1.27714 2.83688,-2.31184 4.12685,-3.60236 1.40616,-1.40677 6.94907,-7.828573 8.92824,-7.828573"
       id="path3024" />
    <path
       style="fill:#ffffff;fill-opacity:0;stroke:#000000;stroke-width:1;stroke-linecap:round;stroke-opacity:1"
       d="m 31.611059,107.58409 c 1.012894,0.50204 2.267424,0.73907 3.399234,0.69802 1.350137,-0.049 3.016671,-0.90144 4.339021,-0.77779 0.534366,0.05 0.899393,0.46721 1.439675,0.51853 4.950571,0.47025 7.347445,2.96726 11.477413,5.18531 1.553962,0.83457 3.55482,1.06803 4.91889,2.21373 2.062631,1.73244 4.402198,4.975 5.638729,7.29932 1.000558,1.88077 1.472236,3.95377 2.339472,5.88334 2.890382,6.43101 6.488861,12.81149 7.918214,19.8039 0.934805,4.57308 1.546865,9.27392 1.919568,13.92057 0.153215,1.91022 -0.0097,3.85379 0.159965,5.76367 0.183795,2.06887 0.719836,4.18266 0.719836,6.24232 0,0.59831 0,1.19661 0,1.79492 0,0.27921 0,1.11683 0,0.83763 0,-3.52399 -1.547054,-6.91931 -1.859579,-10.41052 -0.178303,-1.99179 0.317365,-3.94262 0.359918,-5.92322 0.08246,-3.83842 0.237659,-7.84961 -0.219951,-11.66695 -0.969148,-8.08453 -4.195784,-19.72573 -0.459896,-27.5021 0.968166,-2.01527 3.317356,-3.43465 5.27881,-4.26791 1.0262,-0.43595 2.254901,-0.96881 3.359243,-1.09689 6.653839,-0.77169 13.500594,7.04816 17.915959,10.9091 1.8996,1.66107 4.02966,3.02855 5.97865,4.62689 1.58541,1.30017 2.54111,3.33172 3.95911,4.78644 1.70948,1.75376 3.6204,3.31184 5.35879,5.04571 3.47366,3.46463 8.38652,4.93474 12.79711,6.88051 1.91856,0.84639 3.94286,1.79951 5.47877,3.25079 0.4437,0.41925 0.927,0.78499 1.35969,1.21656 0.28965,0.28889 0.41633,0.51853 0.83981,0.51853 0.10148,0 0.32202,0.212 0.27994,0.11966 -1.16813,-2.56322 -8.01181,-5.63503 -10.47764,-7.45887 -1.16104,-0.85876 -2.10779,-1.91475 -3.13929,-2.91176 -2.00116,-1.93423 -4.14147,-3.74062 -6.25859,-5.54429 -2.50332,-2.1327 -5.0861,-4.26218 -7.69826,-6.26226 -1.51869,-1.16283 -3.14675,-2.20946 -4.53898,-3.53 -6.519602,-6.1839 -13.853167,-17.5446 -14.756672,-26.88385 -0.28734,-2.970147 0.04788,-5.792416 0.639856,-8.695371 0.588232,-2.88462 1.440584,-5.931302 3.039316,-8.456049 2.106263,-3.326249 5.646706,-5.902171 8.55807,-8.47599 1.71033,-1.51203 3.50259,-3.15662 5.01887,-4.866217 0.84363,-0.95119 1.59579,-2.176597 2.51943,-3.011469 1.01606,-0.918413 2.13106,-1.808509 2.91934,-2.931694"
       id="path3026" />
    <path
       style="fill:#ffffff;fill-opacity:0;stroke:#000000;stroke-width:1;stroke-linecap:round;stroke-opacity:1"
       d="m 116.85184,193.77993 c -0.16636,-6.46489 -2.38166,-12.47012 -4.07908,-18.60729 -0.43587,-1.5759 -0.47659,-3.18153 -0.83981,-4.7665 -0.35975,-1.56979 -0.8798,-2.99909 -0.8798,-4.66678 0,-1.8124 0.39991,-3.0995 0.39991,-4.72661 0,-0.0221 -0.0244,-0.62604 0,-0.63819 0.0624,-0.0311 4.62794,1.7585 5.23881,1.93452 4.12602,1.18886 8.52261,2.39913 12.03729,5.00582 2.74591,2.03652 6.9757,6.87946 10.09772,8.07712 0.36874,0.14145 0.81429,0.0298 1.19973,0.0997"
       id="path3028" />
    <path
       style="fill:#ffffff;fill-opacity:0;stroke:#000000;stroke-width:1;stroke-linecap:round;stroke-opacity:1"
       d="m 162.60152,185.94213 c -1.46148,-1.76073 -2.9373,-3.4601 -3.63918,-5.40469 -0.25428,-0.70451 0,-2.02152 0,-2.77214 0,-2.98658 0.18318,-6.1936 -0.8598,-9.05436 -0.775,-2.1257 -1.05733,-4.90368 -2.75938,-6.6013 -0.39856,-0.39752 -2.66576,-1.85283 -3.23927,-2.1539 -0.37142,-0.19497 -0.98466,0.20911 -1.29971,-0.21938 -0.78809,-1.07187 0.19032,-3.49107 0.35992,-4.52717 0.37382,-2.28373 1.09874,-8.18137 0.61986,-10.33074 -0.43211,-1.93945 -1.52927,-4.52641 -2.41946,-6.30215 -0.32095,-0.64023 -4.39639,-4.95922 -4.8389,-4.40751 -0.4769,0.59457 1.19362,4.1962 0.75983,4.56706 -1.04429,0.89277 -3.14197,-1.60413 -3.89913,-1.93452 -2.2866,-0.99779 0.31737,3.06364 0.39991,3.31062 0.14247,0.42628 0.06,1.04222 0.06,1.49577 0,0.0798 0.0741,0.26888 0,0.23932 -0.1885,-0.0752 -2.71567,-2.19208 -3.35924,-1.33622 -0.58822,0.78226 0.74701,1.73721 0.99977,2.31345 0.1858,0.42357 0.1841,1.0797 0.35992,1.53565 0.11371,0.29486 -0.91327,3.56735 -0.45989,4.54712 0.45527,0.98387 2.03072,1.38385 2.35946,2.43311 1.47198,4.69808 -1.97955,5.3081 -1.97955,8.45604 0,0.43083 -0.12654,1.10552 0,1.51571 0.43921,1.42371 3.44416,3.28058 4.11907,4.62689 0.71596,1.42819 -0.84675,4.07348 -1.91957,4.84628 -1.31474,0.94707 -2.72851,1.45814 -3.93911,2.57271"
       id="path3030" />
    <path
       style="fill:#ffffff;fill-opacity:0;stroke:#000000;stroke-width:1;stroke-linecap:round;stroke-opacity:1"
       d="m 114.45238,166.61687 c 0.41433,1.16183 0.81012,2.31925 1.3397,3.43029 0.33429,0.70135 0.64465,1.38039 1.15973,1.9744 0.27427,0.3163 2.12012,1.90386 1.73961,0.25927 -0.42816,-1.85053 -3.1827,-4.24953 -4.23904,-5.66396 z"
       id="path3032" />
    <path
       style="fill:#ffffff;fill-opacity:0;stroke:#000000;stroke-width:1;stroke-linecap:round;stroke-opacity:1"
       d="m 120.51101,175.03303 c -0.68509,1.77439 -0.4847,2.1453 0.47989,3.54995 0.22219,0.32355 3.61797,5.42658 4.41901,4.14825 0.48977,-0.78161 -2.16856,-4.38004 -3.1193,-4.98588 -0.2666,-0.16989 -2.3644,-1.07339 -2.35947,-1.09689 0.1175,-0.55992 0.38658,-1.07695 0.57987,-1.61543 z"
       id="path3034" />
    <path
       style="fill:#ffffff;fill-opacity:0;stroke:#000000;stroke-width:1;stroke-linecap:round;stroke-opacity:1"
       d="m 128.12929,185.72276 c -0.47989,-0.27921 -1.16046,-1.31752 -1.43967,-0.83763 -0.27921,0.47989 1.20106,0.33631 1.43967,0.83763 1.17277,2.46387 -0.20755,2.62831 1.17974,4.06847 0.48204,0.50042 0.76494,1.02462 1.23972,1.51571 2.78682,2.88252 2.07037,-1.49894 -0.21995,-3.41034 -1.94912,-1.62665 2.78082,3.20262 -2.19951,-2.17384 z"
       id="path3036" />
    <path
       style="fill:#ffffff;fill-opacity:0;stroke:#000000;stroke-width:1;stroke-linecap:round;stroke-opacity:1"
       d="m 138.48696,173.19823 c -1.38636,1.94117 -1.38636,1.94117 0,0 z"
       id="path3042" />
    <path
       style="fill:#ffffff;fill-opacity:0;stroke:#000000;stroke-width:1;stroke-linecap:round;stroke-opacity:1"
       d="m 108.17379,217.03406 c -0.54654,-0.29915 -1.08412,-0.61529 -1.63963,-0.89746 -0.39128,-0.19874 -0.83393,-0.25115 -1.09975,-0.61825 -0.30895,-0.42667 -0.20517,-2.01186 -0.67985,-2.15389 -1.11126,-0.33252 -2.39621,0.54639 -3.5392,0.4587 -2.346951,-0.18007 -6.258662,-2.83208 -7.69826,-4.56707 -1.911162,-2.30331 -2.11482,-5.06325 -1.999549,-7.93751 0.02458,-0.6129 0.301839,-2.52902 0.02,-3.09125 -0.139665,-0.2786 -1.374518,-0.1396 -1.619633,-0.1396 -1.846398,0 -5.209937,-2.89155 -6.398559,-3.8491 -0.492009,-0.39636 -6.693281,-5.04571 -7.298354,-5.04571 -0.05693,0 0.106529,-0.0402 0.159964,-0.0598 0.383683,-0.14098 0.797637,-0.0997 1.19973,-0.0997 0.563213,0 2.962169,0.35615 3.31925,0 0.207526,-0.20699 -2.974062,-3.08519 -2.499436,-3.23085 0.264758,-0.0812 4.955574,0.15242 4.818914,-0.27921 -0.09534,-0.30113 -2.15392,-5.31575 -0.47989,-4.86622 1.579774,0.42422 2.733791,2.09849 3.759152,2.41317 0.470003,0.14424 1.175761,-0.0644 1.579642,-0.21938 1.875083,-0.71931 3.117979,1.02875 4.119073,2.2935 0.313071,0.39553 0.245385,0.94454 0.339923,1.41599 0.27514,1.37212 1.296347,3.1309 2.379461,4.00865 1.696366,1.37471 5.320002,0.50518 7.278362,1.25644 2.49815,0.95833 0.86364,3.75566 2.81937,4.92604 1.99493,1.19385 7.49211,-1.0578 9.2779,-2.15389 0.50503,-0.30998 1.29986,0.0475 1.7596,-0.19944 0.61834,-0.33208 1.18249,-0.85424 1.83959,-1.15672"
       id="path3044" />
    <path
       style="fill:#ffffff;fill-opacity:0;stroke:#000000;stroke-width:1;stroke-linecap:round;stroke-opacity:1"
       d="m 139.74667,144.08071 c 0.48656,0.35233 1.10734,1.54356 1.45968,1.057 0.35233,-0.48655 -1.85796,-0.60728 -1.45968,-1.057 0.55766,-0.62966 1.68649,-0.0228 2.51944,-0.13961 0.48724,-0.0683 -0.51989,-2.02503 -0.51989,-2.11401"
       id="path3046" />
    <path
       style="fill:#ffffff;fill-opacity:0;stroke:#000000;stroke-width:1;stroke-linecap:round;stroke-opacity:1"
       d="m 145.14546,138.47658 c 0.23754,1.26905 2.62175,3.7717 3.37923,1.31628 0.20351,-0.65968 -0.67984,-1.62236 -0.67984,-2.37328"
       id="path3048" />
    <path
       style="fill:#ffffff;fill-opacity:0;stroke:#000000;stroke-width:1;stroke-linecap:round;stroke-opacity:1"
       d="m 141.64625,141.00941 c 2.31121,3.72062 3.27985,0.48335 2.97932,-1.91458"
       id="path3050" />
    <path
       style="fill:#ffffff;fill-opacity:0;stroke:#000000;stroke-width:1;stroke-linecap:round;stroke-opacity:1"
       d="m 81.179881,192.72293 c 0.346588,-0.47865 1.518409,-1.08935 1.039765,-1.43594 -0.478642,-0.34659 -0.804284,1.97794 -1.039765,1.43594 -0.356423,-0.82038 0.39217,-1.74725 0.519882,-2.63255 0.01857,-0.12878 -0.654592,-0.44821 -0.739833,-0.61825"
       id="path3054" />
    <path
       style="fill:#ffffff;fill-opacity:0;stroke:#000000;stroke-width:1;stroke-linecap:round;stroke-opacity:1"
       d="m 82.959479,185.4236 c 3.181905,1.49113 3.299256,-0.23046 3.299256,-2.67243"
       id="path3056" />
    <path
       style="fill:#ffffff;fill-opacity:0;stroke:#000000;stroke-width:1;stroke-linecap:round;stroke-opacity:1"
       d="m 81.219872,189.871 c 2.351276,1.17479 3.803957,0.12301 3.0993,-2.31344 -0.204181,-0.706 -1.059759,-1.12788 -1.059759,-1.71514"
       id="path3058" />
    <path
       style="fill:#ffffff;fill-opacity:0;stroke:#000000;stroke-width:1;stroke-linecap:round;stroke-opacity:1"
       d="m 137.44719,175.17264 c 1.11975,-1.94117 1.11975,-1.94117 0,0 z"
       id="path3060" />
  </g>
</svg>
